<mxfile host="app.diagrams.net" modified="2023-02-09T18:17:27.176Z" agent="5.0 (Macintosh; Intel Mac OS X 10_15_7) AppleWebKit/537.36 (KHTML, like Gecko) Chrome/109.0.0.0 Safari/537.36" etag="duIDrdKb15euuyYMGUlE" version="20.8.17" type="github">
  <diagram id="C5RBs43oDa-KdzZeNtuy" name="Page-1">
    <mxGraphModel dx="1035" dy="1738" grid="1" gridSize="10" guides="1" tooltips="1" connect="1" arrows="1" fold="1" page="1" pageScale="1" pageWidth="827" pageHeight="1169" math="0" shadow="0">
      <root>
        <mxCell id="WIyWlLk6GJQsqaUBKTNV-0" />
        <mxCell id="WIyWlLk6GJQsqaUBKTNV-1" parent="WIyWlLk6GJQsqaUBKTNV-0" />
        <mxCell id="eotOGYxIU_wM5mjl6Mn6-0" value="Customer" style="shape=umlActor;verticalLabelPosition=bottom;verticalAlign=top;html=1;" vertex="1" parent="WIyWlLk6GJQsqaUBKTNV-1">
          <mxGeometry x="80" y="-907" width="30" height="60" as="geometry" />
        </mxCell>
        <mxCell id="eotOGYxIU_wM5mjl6Mn6-1" value="" style="html=1;" vertex="1" parent="WIyWlLk6GJQsqaUBKTNV-1">
          <mxGeometry x="200" y="-1100" width="420" height="960" as="geometry" />
        </mxCell>
        <mxCell id="eotOGYxIU_wM5mjl6Mn6-2" value="Banking App" style="text;html=1;align=center;verticalAlign=middle;resizable=0;points=[];autosize=1;strokeColor=none;fillColor=none;" vertex="1" parent="WIyWlLk6GJQsqaUBKTNV-1">
          <mxGeometry x="365" y="-1100" width="90" height="30" as="geometry" />
        </mxCell>
        <mxCell id="eotOGYxIU_wM5mjl6Mn6-3" value="Bank" style="shape=umlActor;verticalLabelPosition=bottom;verticalAlign=top;html=1;" vertex="1" parent="WIyWlLk6GJQsqaUBKTNV-1">
          <mxGeometry x="700" y="-907" width="30" height="60" as="geometry" />
        </mxCell>
        <mxCell id="eotOGYxIU_wM5mjl6Mn6-4" value="Log In" style="ellipse;whiteSpace=wrap;html=1;" vertex="1" parent="WIyWlLk6GJQsqaUBKTNV-1">
          <mxGeometry x="276" y="-977" width="110" height="80" as="geometry" />
        </mxCell>
        <mxCell id="eotOGYxIU_wM5mjl6Mn6-8" value="Check Balance" style="ellipse;whiteSpace=wrap;html=1;" vertex="1" parent="WIyWlLk6GJQsqaUBKTNV-1">
          <mxGeometry x="276" y="-887" width="110" height="80" as="geometry" />
        </mxCell>
        <mxCell id="eotOGYxIU_wM5mjl6Mn6-9" value="Make Payment" style="ellipse;whiteSpace=wrap;html=1;" vertex="1" parent="WIyWlLk6GJQsqaUBKTNV-1">
          <mxGeometry x="276" y="-707" width="110" height="80" as="geometry" />
        </mxCell>
        <mxCell id="eotOGYxIU_wM5mjl6Mn6-10" value="Transfer Funds" style="ellipse;whiteSpace=wrap;html=1;" vertex="1" parent="WIyWlLk6GJQsqaUBKTNV-1">
          <mxGeometry x="276" y="-797" width="110" height="80" as="geometry" />
        </mxCell>
        <mxCell id="eotOGYxIU_wM5mjl6Mn6-16" value="" style="endArrow=none;html=1;rounded=0;exitX=1;exitY=0.3333333333333333;exitDx=0;exitDy=0;exitPerimeter=0;entryX=0;entryY=0.5;entryDx=0;entryDy=0;" edge="1" parent="WIyWlLk6GJQsqaUBKTNV-1" source="eotOGYxIU_wM5mjl6Mn6-0" target="eotOGYxIU_wM5mjl6Mn6-4">
          <mxGeometry width="50" height="50" relative="1" as="geometry">
            <mxPoint x="410" y="-777" as="sourcePoint" />
            <mxPoint x="460" y="-827" as="targetPoint" />
          </mxGeometry>
        </mxCell>
        <mxCell id="eotOGYxIU_wM5mjl6Mn6-17" value="" style="endArrow=none;html=1;rounded=0;entryX=0;entryY=0.5;entryDx=0;entryDy=0;" edge="1" parent="WIyWlLk6GJQsqaUBKTNV-1" target="eotOGYxIU_wM5mjl6Mn6-8">
          <mxGeometry width="50" height="50" relative="1" as="geometry">
            <mxPoint x="110" y="-887" as="sourcePoint" />
            <mxPoint x="300" y="-927" as="targetPoint" />
          </mxGeometry>
        </mxCell>
        <mxCell id="eotOGYxIU_wM5mjl6Mn6-18" value="" style="endArrow=none;html=1;rounded=0;entryX=0;entryY=0.5;entryDx=0;entryDy=0;" edge="1" parent="WIyWlLk6GJQsqaUBKTNV-1" target="eotOGYxIU_wM5mjl6Mn6-10">
          <mxGeometry width="50" height="50" relative="1" as="geometry">
            <mxPoint x="110" y="-887" as="sourcePoint" />
            <mxPoint x="300" y="-837" as="targetPoint" />
          </mxGeometry>
        </mxCell>
        <mxCell id="eotOGYxIU_wM5mjl6Mn6-19" value="" style="endArrow=none;html=1;rounded=0;entryX=0;entryY=0.5;entryDx=0;entryDy=0;" edge="1" parent="WIyWlLk6GJQsqaUBKTNV-1" target="eotOGYxIU_wM5mjl6Mn6-9">
          <mxGeometry width="50" height="50" relative="1" as="geometry">
            <mxPoint x="110" y="-887" as="sourcePoint" />
            <mxPoint x="300" y="-747" as="targetPoint" />
          </mxGeometry>
        </mxCell>
        <mxCell id="eotOGYxIU_wM5mjl6Mn6-20" value="" style="endArrow=none;html=1;rounded=0;entryX=0;entryY=0.3333333333333333;entryDx=0;entryDy=0;entryPerimeter=0;exitX=1;exitY=0.5;exitDx=0;exitDy=0;" edge="1" parent="WIyWlLk6GJQsqaUBKTNV-1" source="eotOGYxIU_wM5mjl6Mn6-8" target="eotOGYxIU_wM5mjl6Mn6-3">
          <mxGeometry width="50" height="50" relative="1" as="geometry">
            <mxPoint x="120" y="-877" as="sourcePoint" />
            <mxPoint x="300" y="-837" as="targetPoint" />
          </mxGeometry>
        </mxCell>
        <mxCell id="eotOGYxIU_wM5mjl6Mn6-21" value="" style="endArrow=none;html=1;rounded=0;exitX=1;exitY=0.5;exitDx=0;exitDy=0;" edge="1" parent="WIyWlLk6GJQsqaUBKTNV-1" source="eotOGYxIU_wM5mjl6Mn6-10">
          <mxGeometry width="50" height="50" relative="1" as="geometry">
            <mxPoint x="410" y="-837" as="sourcePoint" />
            <mxPoint x="700" y="-887" as="targetPoint" />
          </mxGeometry>
        </mxCell>
        <mxCell id="eotOGYxIU_wM5mjl6Mn6-22" value="" style="endArrow=none;html=1;rounded=0;exitX=1;exitY=0.5;exitDx=0;exitDy=0;" edge="1" parent="WIyWlLk6GJQsqaUBKTNV-1" source="eotOGYxIU_wM5mjl6Mn6-9">
          <mxGeometry width="50" height="50" relative="1" as="geometry">
            <mxPoint x="410" y="-747" as="sourcePoint" />
            <mxPoint x="700" y="-887" as="targetPoint" />
            <Array as="points">
              <mxPoint x="610" y="-680" />
            </Array>
          </mxGeometry>
        </mxCell>
        <mxCell id="eotOGYxIU_wM5mjl6Mn6-24" value="Verify Password" style="ellipse;whiteSpace=wrap;html=1;" vertex="1" parent="WIyWlLk6GJQsqaUBKTNV-1">
          <mxGeometry x="504" y="-1057" width="110" height="80" as="geometry" />
        </mxCell>
        <mxCell id="eotOGYxIU_wM5mjl6Mn6-25" value="Display Login Error" style="ellipse;whiteSpace=wrap;html=1;" vertex="1" parent="WIyWlLk6GJQsqaUBKTNV-1">
          <mxGeometry x="504" y="-967" width="110" height="80" as="geometry" />
        </mxCell>
        <mxCell id="eotOGYxIU_wM5mjl6Mn6-26" value="Verify Sufficient Funds" style="ellipse;whiteSpace=wrap;html=1;" vertex="1" parent="WIyWlLk6GJQsqaUBKTNV-1">
          <mxGeometry x="470" y="-770" width="110" height="80" as="geometry" />
        </mxCell>
        <mxCell id="eotOGYxIU_wM5mjl6Mn6-27" value="Pay from Checking Account" style="ellipse;whiteSpace=wrap;html=1;" vertex="1" parent="WIyWlLk6GJQsqaUBKTNV-1">
          <mxGeometry x="206" y="-560" width="110" height="80" as="geometry" />
        </mxCell>
        <mxCell id="eotOGYxIU_wM5mjl6Mn6-28" value="Pay from Savings Account" style="ellipse;whiteSpace=wrap;html=1;" vertex="1" parent="WIyWlLk6GJQsqaUBKTNV-1">
          <mxGeometry x="351" y="-560" width="110" height="80" as="geometry" />
        </mxCell>
        <mxCell id="eotOGYxIU_wM5mjl6Mn6-29" value="" style="endArrow=classic;html=1;rounded=0;entryX=0;entryY=0.5;entryDx=0;entryDy=0;exitX=0.986;exitY=0.396;exitDx=0;exitDy=0;exitPerimeter=0;dashed=1;" edge="1" parent="WIyWlLk6GJQsqaUBKTNV-1" source="eotOGYxIU_wM5mjl6Mn6-4" target="eotOGYxIU_wM5mjl6Mn6-24">
          <mxGeometry width="50" height="50" relative="1" as="geometry">
            <mxPoint x="410" y="-840" as="sourcePoint" />
            <mxPoint x="460" y="-890" as="targetPoint" />
          </mxGeometry>
        </mxCell>
        <mxCell id="eotOGYxIU_wM5mjl6Mn6-30" value="&amp;lt;&amp;lt;include&amp;gt;&amp;gt;" style="edgeLabel;html=1;align=center;verticalAlign=middle;resizable=0;points=[];" vertex="1" connectable="0" parent="eotOGYxIU_wM5mjl6Mn6-29">
          <mxGeometry x="0.167" y="-1" relative="1" as="geometry">
            <mxPoint as="offset" />
          </mxGeometry>
        </mxCell>
        <mxCell id="eotOGYxIU_wM5mjl6Mn6-31" value="" style="endArrow=classic;html=1;rounded=0;exitX=0;exitY=0.5;exitDx=0;exitDy=0;entryX=1;entryY=0.5;entryDx=0;entryDy=0;dashed=1;" edge="1" parent="WIyWlLk6GJQsqaUBKTNV-1" source="eotOGYxIU_wM5mjl6Mn6-25" target="eotOGYxIU_wM5mjl6Mn6-4">
          <mxGeometry width="50" height="50" relative="1" as="geometry">
            <mxPoint x="408.46000000000004" y="-935.3199999999999" as="sourcePoint" />
            <mxPoint x="479.9999999999957" y="-1007.0000000000001" as="targetPoint" />
          </mxGeometry>
        </mxCell>
        <mxCell id="eotOGYxIU_wM5mjl6Mn6-32" value="&amp;lt;&amp;lt;extend&amp;gt;&amp;gt;" style="edgeLabel;html=1;align=center;verticalAlign=middle;resizable=0;points=[];" vertex="1" connectable="0" parent="eotOGYxIU_wM5mjl6Mn6-31">
          <mxGeometry x="0.167" y="-1" relative="1" as="geometry">
            <mxPoint x="20" y="-3" as="offset" />
          </mxGeometry>
        </mxCell>
        <mxCell id="eotOGYxIU_wM5mjl6Mn6-33" value="Sneeze" style="ellipse;whiteSpace=wrap;html=1;" vertex="1" parent="WIyWlLk6GJQsqaUBKTNV-1">
          <mxGeometry x="750" y="-1020" width="110" height="80" as="geometry" />
        </mxCell>
        <mxCell id="eotOGYxIU_wM5mjl6Mn6-34" value="" style="endArrow=classic;html=1;rounded=0;entryX=0;entryY=0.5;entryDx=0;entryDy=0;exitX=0.986;exitY=0.396;exitDx=0;exitDy=0;exitPerimeter=0;dashed=1;" edge="1" source="eotOGYxIU_wM5mjl6Mn6-33" target="eotOGYxIU_wM5mjl6Mn6-39" parent="WIyWlLk6GJQsqaUBKTNV-1">
          <mxGeometry width="50" height="50" relative="1" as="geometry">
            <mxPoint x="884" y="-883" as="sourcePoint" />
            <mxPoint x="934" y="-933" as="targetPoint" />
          </mxGeometry>
        </mxCell>
        <mxCell id="eotOGYxIU_wM5mjl6Mn6-35" value="&amp;lt;&amp;lt;include&amp;gt;&amp;gt;" style="edgeLabel;html=1;align=center;verticalAlign=middle;resizable=0;points=[];" vertex="1" connectable="0" parent="eotOGYxIU_wM5mjl6Mn6-34">
          <mxGeometry x="0.167" y="-1" relative="1" as="geometry">
            <mxPoint as="offset" />
          </mxGeometry>
        </mxCell>
        <mxCell id="eotOGYxIU_wM5mjl6Mn6-36" value="" style="endArrow=classic;html=1;rounded=0;exitX=0;exitY=0.5;exitDx=0;exitDy=0;entryX=1;entryY=0.5;entryDx=0;entryDy=0;dashed=1;" edge="1" source="eotOGYxIU_wM5mjl6Mn6-38" target="eotOGYxIU_wM5mjl6Mn6-33" parent="WIyWlLk6GJQsqaUBKTNV-1">
          <mxGeometry width="50" height="50" relative="1" as="geometry">
            <mxPoint x="882.46" y="-978.3199999999999" as="sourcePoint" />
            <mxPoint x="953.9999999999957" y="-1050" as="targetPoint" />
          </mxGeometry>
        </mxCell>
        <mxCell id="eotOGYxIU_wM5mjl6Mn6-37" value="&amp;lt;&amp;lt;extend&amp;gt;&amp;gt;" style="edgeLabel;html=1;align=center;verticalAlign=middle;resizable=0;points=[];" vertex="1" connectable="0" parent="eotOGYxIU_wM5mjl6Mn6-36">
          <mxGeometry x="0.167" y="-1" relative="1" as="geometry">
            <mxPoint x="20" y="-3" as="offset" />
          </mxGeometry>
        </mxCell>
        <mxCell id="eotOGYxIU_wM5mjl6Mn6-38" value="Says Excuse Me" style="ellipse;whiteSpace=wrap;html=1;" vertex="1" parent="WIyWlLk6GJQsqaUBKTNV-1">
          <mxGeometry x="978" y="-1010" width="110" height="80" as="geometry" />
        </mxCell>
        <mxCell id="eotOGYxIU_wM5mjl6Mn6-39" value="Close Eyes" style="ellipse;whiteSpace=wrap;html=1;" vertex="1" parent="WIyWlLk6GJQsqaUBKTNV-1">
          <mxGeometry x="978" y="-1100" width="110" height="80" as="geometry" />
        </mxCell>
        <mxCell id="eotOGYxIU_wM5mjl6Mn6-42" value="" style="endArrow=block;endSize=16;endFill=0;html=1;rounded=0;entryX=0.5;entryY=1;entryDx=0;entryDy=0;exitX=0.5;exitY=0;exitDx=0;exitDy=0;" edge="1" parent="WIyWlLk6GJQsqaUBKTNV-1" source="eotOGYxIU_wM5mjl6Mn6-27" target="eotOGYxIU_wM5mjl6Mn6-9">
          <mxGeometry x="0.3077" y="14" width="160" relative="1" as="geometry">
            <mxPoint x="410" y="-500" as="sourcePoint" />
            <mxPoint x="570" y="-500" as="targetPoint" />
            <Array as="points">
              <mxPoint x="260" y="-590" />
              <mxPoint x="331" y="-590" />
            </Array>
            <mxPoint as="offset" />
          </mxGeometry>
        </mxCell>
        <mxCell id="eotOGYxIU_wM5mjl6Mn6-43" value="" style="endArrow=block;endSize=16;endFill=0;html=1;rounded=0;entryX=0.5;entryY=1;entryDx=0;entryDy=0;exitX=0.5;exitY=0;exitDx=0;exitDy=0;" edge="1" parent="WIyWlLk6GJQsqaUBKTNV-1" source="eotOGYxIU_wM5mjl6Mn6-28" target="eotOGYxIU_wM5mjl6Mn6-9">
          <mxGeometry x="0.3077" y="14" width="160" relative="1" as="geometry">
            <mxPoint x="271" y="-550" as="sourcePoint" />
            <mxPoint x="341" y="-617" as="targetPoint" />
            <Array as="points">
              <mxPoint x="406" y="-590" />
              <mxPoint x="331" y="-590" />
            </Array>
            <mxPoint as="offset" />
          </mxGeometry>
        </mxCell>
        <mxCell id="eotOGYxIU_wM5mjl6Mn6-44" value="&lt;br&gt;&lt;br&gt;Set Up Profile&lt;br&gt;&lt;br&gt;Extension Points&lt;br&gt;Profile Help&lt;br&gt;Privacy Info&lt;br&gt;&lt;br&gt;" style="ellipse;whiteSpace=wrap;html=1;" vertex="1" parent="WIyWlLk6GJQsqaUBKTNV-1">
          <mxGeometry x="206" y="-312" width="140" height="90" as="geometry" />
        </mxCell>
        <mxCell id="eotOGYxIU_wM5mjl6Mn6-46" value="" style="endArrow=none;html=1;rounded=0;exitX=0;exitY=0.5;exitDx=0;exitDy=0;entryX=1;entryY=0.5;entryDx=0;entryDy=0;" edge="1" parent="WIyWlLk6GJQsqaUBKTNV-1" source="eotOGYxIU_wM5mjl6Mn6-44" target="eotOGYxIU_wM5mjl6Mn6-44">
          <mxGeometry width="50" height="50" relative="1" as="geometry">
            <mxPoint x="470" y="-392" as="sourcePoint" />
            <mxPoint x="520" y="-442" as="targetPoint" />
          </mxGeometry>
        </mxCell>
        <mxCell id="eotOGYxIU_wM5mjl6Mn6-47" value="Go to Profile Help" style="ellipse;whiteSpace=wrap;html=1;" vertex="1" parent="WIyWlLk6GJQsqaUBKTNV-1">
          <mxGeometry x="502" y="-382" width="110" height="80" as="geometry" />
        </mxCell>
        <mxCell id="eotOGYxIU_wM5mjl6Mn6-48" value="" style="endArrow=classic;html=1;rounded=0;exitX=0;exitY=0.5;exitDx=0;exitDy=0;dashed=1;" edge="1" source="eotOGYxIU_wM5mjl6Mn6-47" parent="WIyWlLk6GJQsqaUBKTNV-1">
          <mxGeometry width="50" height="50" relative="1" as="geometry">
            <mxPoint x="387.46000000000004" y="-350.31999999999994" as="sourcePoint" />
            <mxPoint x="365" y="-272" as="targetPoint" />
          </mxGeometry>
        </mxCell>
        <mxCell id="eotOGYxIU_wM5mjl6Mn6-49" value="&amp;lt;&amp;lt;extend&amp;gt;&amp;gt;" style="edgeLabel;html=1;align=center;verticalAlign=middle;resizable=0;points=[];" vertex="1" connectable="0" parent="eotOGYxIU_wM5mjl6Mn6-48">
          <mxGeometry x="0.167" y="-1" relative="1" as="geometry">
            <mxPoint x="20" y="-3" as="offset" />
          </mxGeometry>
        </mxCell>
        <mxCell id="eotOGYxIU_wM5mjl6Mn6-53" value="Show Privacy Info" style="ellipse;whiteSpace=wrap;html=1;" vertex="1" parent="WIyWlLk6GJQsqaUBKTNV-1">
          <mxGeometry x="502" y="-252" width="110" height="80" as="geometry" />
        </mxCell>
        <mxCell id="eotOGYxIU_wM5mjl6Mn6-54" value="" style="endArrow=classic;html=1;rounded=0;exitX=0;exitY=0.5;exitDx=0;exitDy=0;dashed=1;entryX=1;entryY=0.5;entryDx=0;entryDy=0;" edge="1" source="eotOGYxIU_wM5mjl6Mn6-53" parent="WIyWlLk6GJQsqaUBKTNV-1" target="eotOGYxIU_wM5mjl6Mn6-44">
          <mxGeometry width="50" height="50" relative="1" as="geometry">
            <mxPoint x="387.46000000000004" y="-220.31999999999994" as="sourcePoint" />
            <mxPoint x="365" y="-142" as="targetPoint" />
          </mxGeometry>
        </mxCell>
        <mxCell id="eotOGYxIU_wM5mjl6Mn6-55" value="&amp;lt;&amp;lt;extend&amp;gt;&amp;gt;" style="edgeLabel;html=1;align=center;verticalAlign=middle;resizable=0;points=[];" vertex="1" connectable="0" parent="eotOGYxIU_wM5mjl6Mn6-54">
          <mxGeometry x="0.167" y="-1" relative="1" as="geometry">
            <mxPoint x="20" y="-3" as="offset" />
          </mxGeometry>
        </mxCell>
        <mxCell id="eotOGYxIU_wM5mjl6Mn6-56" value="If user clicks help link, go to Profile Help" style="shape=note;whiteSpace=wrap;html=1;backgroundOutline=1;darkOpacity=0.05;" vertex="1" parent="WIyWlLk6GJQsqaUBKTNV-1">
          <mxGeometry x="365" y="-440" width="114" height="80" as="geometry" />
        </mxCell>
        <mxCell id="eotOGYxIU_wM5mjl6Mn6-57" value="" style="endArrow=none;dashed=1;html=1;rounded=0;entryX=0.5;entryY=1;entryDx=0;entryDy=0;entryPerimeter=0;" edge="1" parent="WIyWlLk6GJQsqaUBKTNV-1" target="eotOGYxIU_wM5mjl6Mn6-56">
          <mxGeometry width="50" height="50" relative="1" as="geometry">
            <mxPoint x="422" y="-310" as="sourcePoint" />
            <mxPoint x="590" y="-330" as="targetPoint" />
          </mxGeometry>
        </mxCell>
        <mxCell id="eotOGYxIU_wM5mjl6Mn6-58" value="https://www.youtube.com/watch?v=zid-MVo7M-E" style="text;html=1;align=center;verticalAlign=middle;resizable=0;points=[];autosize=1;strokeColor=none;fillColor=none;" vertex="1" parent="WIyWlLk6GJQsqaUBKTNV-1">
          <mxGeometry x="80" y="-1150" width="280" height="30" as="geometry" />
        </mxCell>
      </root>
    </mxGraphModel>
  </diagram>
</mxfile>
